<?xml version="1.0" encoding="utf-8"?>
<!-- Generator: Adobe Illustrator 17.0.2, SVG Export Plug-In . SVG Version: 6.00 Build 0)  -->
<!DOCTYPE svg PUBLIC "-//W3C//DTD SVG 1.1//EN" "http://www.w3.org/Graphics/SVG/1.1/DTD/svg11.dtd">
<svg version="1.1" id="Layer_1" xmlns="http://www.w3.org/2000/svg" xmlns:xlink="http://www.w3.org/1999/xlink" x="0px" y="0px"
	 width="45.588px" height="48.253px" viewBox="0 0 45.588 48.253" enable-background="new 0 0 45.588 48.253" xml:space="preserve">
<g>
	<path fill="#ABE9F4" d="M45.588,24.128c0,1.113-0.382,2.053-1.145,2.818L24.281,47.108c-0.806,0.763-1.746,1.145-2.818,1.145
		c-1.052,0-1.983-0.382-2.787-1.145l-2.324-2.324c-0.784-0.786-1.177-1.725-1.177-2.818s0.393-2.032,1.177-2.818l9.074-9.074H3.625
		c-1.075,0-1.947-0.388-2.617-1.163C0.334,28.138,0,27.203,0,26.108v-3.963c0-1.095,0.334-2.028,1.007-2.803
		c0.671-0.775,1.542-1.163,2.617-1.163h21.802l-9.074-9.105c-0.784-0.743-1.177-1.671-1.177-2.787s0.393-2.044,1.177-2.787
		l2.324-2.324C19.46,0.393,20.388,0,21.463,0c1.093,0,2.032,0.393,2.818,1.177l20.162,20.162
		C45.207,22.061,45.588,22.992,45.588,24.128z"/>
</g>
</svg>
