<?xml version="1.0" encoding="utf-8"?>
<!-- Generator: Adobe Illustrator 17.0.2, SVG Export Plug-In . SVG Version: 6.00 Build 0)  -->
<!DOCTYPE svg PUBLIC "-//W3C//DTD SVG 1.1//EN" "http://www.w3.org/Graphics/SVG/1.1/DTD/svg11.dtd">
<svg version="1.1" id="Layer_1" xmlns="http://www.w3.org/2000/svg" xmlns:xlink="http://www.w3.org/1999/xlink" x="0px" y="0px"
	 width="333.46px" height="66.056px" viewBox="0 0 333.46 66.056" enable-background="new 0 0 333.46 66.056" xml:space="preserve">
<g>
	<g>
		<path fill="#FFFFFF" d="M30.584,65.347c-0.886,0-1.434-0.413-1.64-1.241l-0.62-5.629c-1.212,1.183-2.416,2.246-3.613,3.191
			c-1.197,0.946-2.445,1.744-3.745,2.394c-1.301,0.65-2.704,1.146-4.211,1.484c-1.507,0.34-3.163,0.51-4.964,0.51
			c-1.507,0-2.97-0.221-4.388-0.664s-2.675-1.123-3.768-2.039c-1.094-0.916-1.973-2.091-2.637-3.524C0.333,58.396,0,56.675,0,54.665
			c0-1.862,0.532-3.591,1.596-5.187s2.726-2.984,4.986-4.166c2.261-1.182,5.171-2.128,8.732-2.837
			c3.56-0.709,7.837-1.123,12.832-1.241v-4.609c0-4.078-0.879-7.217-2.637-9.419c-1.758-2.201-4.366-3.302-7.823-3.302
			c-2.127,0-3.938,0.295-5.43,0.886c-1.493,0.592-2.756,1.241-3.79,1.95c-1.035,0.709-1.876,1.36-2.526,1.951
			c-0.65,0.591-1.197,0.886-1.64,0.886c-0.591,0-1.035-0.266-1.33-0.798l-0.753-1.285c2.305-2.305,4.728-4.048,7.269-5.23
			c2.541-1.182,5.422-1.773,8.644-1.773c2.364,0,4.433,0.376,6.206,1.13c1.773,0.753,3.242,1.833,4.41,3.235
			c1.167,1.404,2.046,3.103,2.637,5.098c0.591,1.995,0.887,4.218,0.887,6.671v28.722H30.584z M12.854,62.998
			c1.713,0,3.287-0.185,4.721-0.555c1.433-0.369,2.763-0.886,3.989-1.551c1.226-0.665,2.372-1.455,3.435-2.372
			c1.064-0.915,2.112-1.905,3.147-2.97V44.071c-4.196,0.118-7.809,0.437-10.837,0.953c-3.029,0.517-5.526,1.219-7.491,2.105
			c-1.965,0.886-3.413,1.943-4.344,3.169c-0.931,1.227-1.396,2.623-1.396,4.188c0,1.479,0.244,2.756,0.731,3.834
			c0.488,1.079,1.13,1.966,1.928,2.659c0.798,0.695,1.729,1.205,2.792,1.529C10.594,62.836,11.702,62.998,12.854,62.998z"/>
		<path fill="#FFFFFF" d="M41.133,65.347V21.244h2.305c0.768,0,1.211,0.37,1.33,1.108l0.399,6.649
			c2.009-2.541,4.351-4.587,7.025-6.139c2.674-1.551,5.651-2.327,8.931-2.327c2.423,0,4.558,0.384,6.405,1.152
			c1.847,0.769,3.376,1.877,4.588,3.324c1.211,1.448,2.127,3.191,2.748,5.23c0.621,2.039,0.931,4.344,0.931,6.914v28.19h-4.21
			v-28.19c0-4.136-0.946-7.379-2.837-9.729c-1.892-2.349-4.787-3.523-8.688-3.523c-2.896,0-5.585,0.747-8.067,2.238
			c-2.482,1.493-4.698,3.539-6.648,6.139v33.066H41.133z"/>
		<path fill="#FFFFFF" d="M91.972,6.041c0,0.532-0.111,1.027-0.333,1.485c-0.222,0.458-0.51,0.864-0.864,1.219
			s-0.769,0.636-1.241,0.842c-0.473,0.207-0.975,0.31-1.507,0.31s-1.035-0.103-1.507-0.31c-0.473-0.207-0.886-0.488-1.241-0.842
			s-0.636-0.76-0.842-1.219c-0.207-0.458-0.31-0.953-0.31-1.485c0-0.532,0.103-1.042,0.31-1.529
			c0.207-0.488,0.488-0.909,0.842-1.263c0.354-0.355,0.768-0.635,1.241-0.842c0.473-0.207,0.976-0.311,1.507-0.311
			s1.034,0.104,1.507,0.311c0.473,0.207,0.887,0.487,1.241,0.842c0.354,0.354,0.643,0.775,0.864,1.263
			C91.861,4.999,91.972,5.509,91.972,6.041z M90.11,21.244v44.103H85.9V21.244H90.11z"/>
		<path fill="#FFFFFF" d="M101.279,65.347V21.244h2.305c0.768,0,1.211,0.37,1.33,1.108l0.399,6.383
			c0.856-1.211,1.773-2.319,2.748-3.324c0.975-1.004,2.017-1.869,3.125-2.593c1.108-0.724,2.29-1.286,3.546-1.685
			c1.255-0.399,2.578-0.598,3.967-0.598c3.221,0,5.792,0.938,7.712,2.814c1.92,1.877,3.221,4.484,3.901,7.823
			c0.53-1.832,1.275-3.413,2.235-4.743c0.958-1.33,2.058-2.43,3.296-3.302c1.239-0.871,2.589-1.521,4.05-1.95
			c1.46-0.428,2.957-0.643,4.492-0.643c2.183,0,4.145,0.362,5.886,1.086c1.741,0.724,3.223,1.795,4.447,3.213
			c1.224,1.418,2.161,3.162,2.81,5.23c0.649,2.068,0.974,4.432,0.974,7.091v28.19h-4.211v-28.19c0-4.313-0.931-7.601-2.792-9.862
			s-4.521-3.391-7.979-3.391c-1.537,0-3.007,0.281-4.41,0.842c-1.404,0.562-2.645,1.396-3.723,2.504
			c-1.079,1.108-1.936,2.49-2.571,4.145c-0.636,1.655-0.953,3.576-0.953,5.762v28.19h-4.211v-28.19c0-4.284-0.857-7.564-2.571-9.84
			c-1.714-2.275-4.211-3.413-7.491-3.413c-2.394,0-4.61,0.717-6.649,2.149c-2.039,1.434-3.856,3.421-5.452,5.962v33.332H101.279z"/>
		<path fill="#FFFFFF" d="M195.511,65.347c-0.886,0-1.434-0.413-1.64-1.241l-0.62-5.629c-1.213,1.183-2.416,2.246-3.613,3.191
			c-1.196,0.946-2.445,1.744-3.745,2.394c-1.301,0.65-2.704,1.146-4.211,1.484c-1.507,0.34-3.162,0.51-4.964,0.51
			c-1.508,0-2.97-0.221-4.389-0.664c-1.418-0.443-2.675-1.123-3.768-2.039c-1.094-0.916-1.973-2.091-2.637-3.524
			c-0.665-1.433-0.998-3.153-0.998-5.163c0-1.862,0.532-3.591,1.596-5.187c1.064-1.596,2.727-2.984,4.986-4.166
			c2.261-1.182,5.171-2.128,8.732-2.837c3.561-0.709,7.838-1.123,12.832-1.241v-4.609c0-4.078-0.88-7.217-2.638-9.419
			c-1.758-2.201-4.365-3.302-7.823-3.302c-2.127,0-3.938,0.295-5.43,0.886c-1.492,0.592-2.756,1.241-3.79,1.95
			c-1.034,0.709-1.876,1.36-2.526,1.951c-0.65,0.591-1.196,0.886-1.64,0.886c-0.592,0-1.035-0.266-1.33-0.798l-0.753-1.285
			c2.305-2.305,4.728-4.048,7.269-5.23c2.541-1.182,5.423-1.773,8.644-1.773c2.364,0,4.433,0.376,6.206,1.13
			c1.772,0.753,3.242,1.833,4.41,3.235c1.167,1.404,2.046,3.103,2.637,5.098s0.887,4.218,0.887,6.671v28.722H195.511z
			 M177.782,62.998c1.713,0,3.287-0.185,4.721-0.555c1.433-0.369,2.763-0.886,3.989-1.551c1.226-0.665,2.371-1.455,3.435-2.372
			c1.064-0.915,2.112-1.905,3.147-2.97V44.071c-4.196,0.118-7.809,0.437-10.838,0.953s-5.525,1.219-7.49,2.105
			c-1.966,0.886-3.413,1.943-4.344,3.169c-0.931,1.227-1.396,2.623-1.396,4.188c0,1.479,0.244,2.756,0.731,3.834
			c0.487,1.079,1.13,1.966,1.928,2.659c0.798,0.695,1.729,1.205,2.793,1.529C175.521,62.836,176.629,62.998,177.782,62.998z"/>
		<path fill="#FFFFFF" d="M235.493,23.017c0,0.621-0.207,1.182-0.621,1.685l-27.614,37.321h27.127v3.324H202.16v-1.685
			c0-0.502,0.222-1.048,0.665-1.64l27.703-37.454h-26.905v-3.324h31.87V23.017z"/>
		<path fill="#FFFFFF" d="M258.319,20.535c2.482,0,4.779,0.429,6.893,1.285c2.112,0.857,3.945,2.105,5.496,3.746
			c1.552,1.64,2.763,3.657,3.635,6.05c0.871,2.394,1.308,5.142,1.308,8.244c0,0.65-0.096,1.094-0.288,1.33
			c-0.191,0.236-0.494,0.354-0.907,0.354h-31.826v0.842c0,3.31,0.384,6.221,1.152,8.732c0.768,2.512,1.861,4.617,3.28,6.315
			c1.418,1.7,3.132,2.978,5.142,3.835c2.009,0.856,4.255,1.285,6.737,1.285c2.216,0,4.137-0.244,5.762-0.731s2.992-1.034,4.101-1.64
			c1.107-0.605,1.986-1.153,2.637-1.641s1.123-0.731,1.419-0.731c0.384,0,0.679,0.148,0.886,0.443l1.153,1.419
			c-0.71,0.886-1.648,1.714-2.815,2.481c-1.167,0.769-2.467,1.427-3.9,1.973c-1.434,0.547-2.97,0.982-4.609,1.308
			c-1.641,0.325-3.288,0.487-4.942,0.487c-3.014,0-5.762-0.524-8.244-1.573c-2.482-1.049-4.612-2.578-6.39-4.588
			c-1.778-2.009-3.152-4.469-4.122-7.38c-0.972-2.91-1.456-6.242-1.456-9.995c0-3.161,0.45-6.079,1.352-8.754
			c0.901-2.674,2.201-4.979,3.9-6.915c1.699-1.935,3.782-3.45,6.25-4.543C252.386,21.082,255.187,20.535,258.319,20.535z
			 M258.384,23.682c-2.272,0-4.309,0.354-6.107,1.063c-1.801,0.709-3.356,1.729-4.67,3.059c-1.312,1.33-2.375,2.925-3.187,4.787
			c-0.812,1.862-1.35,3.945-1.615,6.25h29.033c0-2.363-0.325-4.483-0.974-6.36c-0.65-1.876-1.564-3.464-2.744-4.765
			c-1.181-1.3-2.597-2.297-4.249-2.992C262.219,24.03,260.39,23.682,258.384,23.682z"/>
	</g>
</g>
<g>
	<path fill="#5FCCFF" d="M310.643,0c-12.602,0-22.817,10.216-22.817,22.817c0,7.266,3.401,13.734,8.692,17.913v10.88l9.064-6.545
		c1.629,0.369,3.321,0.57,5.061,0.57c12.602,0,22.817-10.216,22.817-22.817S323.245,0,310.643,0z"/>
</g>
</svg>
